<?xml version="1.0" standalone="no"?>
<!DOCTYPE svg PUBLIC "-//W3C//DTD SVG 20010904//EN"
 "http://www.w3.org/TR/2001/REC-SVG-20010904/DTD/svg10.dtd">
<svg version="1.0" xmlns="http://www.w3.org/2000/svg"
 width="170.000000pt" height="170.000000pt" viewBox="0 0 170.000000 170.000000"
 preserveAspectRatio="xMidYMid meet">
<metadata>
Created by potrace 1.14, written by Peter Selinger 2001-2017
</metadata>
<g transform="translate(0.000000,170.000000) scale(0.100000,-0.100000)"
fill="#000000" stroke="none">
<path d="M871 1678 c6 -13 22 -37 35 -54 l23 -31 -84 -7 c-89 -6 -227 -47
-315 -91 -70 -36 -150 -118 -259 -271 -52 -71 -105 -141 -119 -156 -32 -35
-20 -35 37 -3 l43 25 -6 -22 c-11 -38 -44 -200 -50 -248 -4 -25 -22 -76 -41
-115 -18 -38 -32 -71 -31 -73 2 -1 31 28 66 64 34 37 60 59 56 48 -3 -10 -10
-78 -16 -149 -10 -135 -21 -187 -41 -211 -7 -8 -10 -17 -7 -19 9 -9 88 84 88
102 0 13 3 14 12 5 7 -7 12 -50 12 -111 1 -54 3 -97 5 -95 2 2 13 21 23 42
l18 37 -5 -60 -5 -60 20 25 c11 14 20 29 20 34 0 5 11 -1 25 -14 21 -20 25
-32 25 -83 0 -51 2 -58 14 -47 8 6 20 27 26 46 7 19 15 32 20 29 26 -16 182
-66 223 -71 50 -7 55 -14 34 -54 -23 -43 -36 -90 -27 -90 5 0 14 15 19 33 l9
32 1 -32 c2 -64 21 -33 21 33 0 64 1 66 23 60 12 -3 25 -6 30 -6 14 0 7 -32
-19 -76 -14 -24 -22 -44 -17 -44 5 0 17 16 27 35 33 61 41 62 87 11 23 -25 46
-46 52 -46 6 0 -10 22 -36 48 l-47 48 27 20 c22 16 84 44 99 44 1 0 0 -36 -3
-80 -4 -57 -3 -80 6 -80 7 0 11 20 12 53 l1 52 16 -47 c17 -47 32 -71 32 -50
0 6 -11 41 -25 78 -14 36 -25 69 -25 73 0 4 24 15 53 26 28 10 78 31 109 46
l57 29 6 -38 c4 -20 8 -41 9 -47 2 -5 15 27 30 72 15 46 31 85 34 87 4 2 5
-22 4 -55 -2 -32 0 -59 5 -59 4 0 23 39 42 88 42 109 51 119 51 57 l0 -50 30
50 c16 28 34 73 41 100 16 62 29 79 29 37 0 -18 4 -32 8 -32 13 0 32 95 33
168 l1 67 13 -55 c12 -54 12 -54 21 -25 5 17 9 113 9 215 0 142 -4 199 -17
245 -63 229 -160 354 -337 438 -52 25 -60 32 -45 38 10 4 32 21 49 38 l30 32
-45 -20 c-80 -35 -133 -37 -193 -7 -29 14 -71 41 -94 61 -48 41 -58 44 -42 13z
m477 -459 c-2 -6 -8 -10 -13 -10 -5 0 -11 4 -13 10 -2 6 4 11 13 11 9 0 15 -5
13 -11z m-68 -25 c0 -8 -4 -12 -10 -9 -5 3 -10 10 -10 16 0 5 5 9 10 9 6 0 10
-7 10 -16z m-928 -36 c-7 -7 -12 -8 -12 -2 0 14 12 26 19 19 2 -3 -1 -11 -7
-17z m606 -56 c2 -7 -3 -12 -12 -12 -9 0 -16 7 -16 16 0 17 22 14 28 -4z
m-463 -2 c3 -5 -1 -10 -10 -10 -9 0 -13 5 -10 10 3 6 8 10 10 10 2 0 7 -4 10
-10z m403 -8 c6 -18 -15 -14 -22 4 -4 10 -1 14 6 12 6 -2 14 -10 16 -16z m225
-232 c3 -11 1 -20 -4 -20 -5 0 -9 9 -9 20 0 11 2 20 4 20 2 0 6 -9 9 -20z
m-613 -15 c0 -8 -4 -15 -10 -15 -5 0 -7 7 -4 15 4 8 8 15 10 15 2 0 4 -7 4
-15z m540 -67 c25 -46 25 -43 -5 -46 -23 -2 -25 2 -25 37 0 22 -3 48 -6 58 -5
15 -4 16 5 3 7 -8 21 -32 31 -52z m-150 48 c0 -3 -4 -8 -10 -11 -5 -3 -10 -1
-10 4 0 6 5 11 10 11 6 0 10 -2 10 -4z m240 -61 c6 -4 6 4 0 21 -18 47 -3 38
19 -12 12 -26 20 -49 17 -51 -2 -2 -22 -1 -45 3 -41 7 -42 8 -36 38 14 68 18
74 27 39 4 -18 13 -35 18 -38z m-623 23 c0 -7 4 -21 8 -31 6 -13 3 -16 -9 -11
-28 11 -17 -13 17 -36 17 -12 23 -19 12 -15 -11 4 -43 10 -72 14 l-51 6 25 43
c18 29 32 42 47 42 13 0 23 -6 23 -12z m316 -92 c4 21 7 53 8 69 l1 30 9 -27
c14 -37 37 -44 32 -10 -3 24 -2 24 6 7 8 -17 10 -17 10 -3 1 12 6 15 19 11 13
-5 15 -4 7 8 -5 8 -2 6 8 -5 18 -19 18 -20 -7 -33 -29 -15 -35 -37 -8 -29 9 2
27 7 40 11 33 10 27 -3 -10 -18 -18 -8 -41 -23 -51 -34 -17 -20 -17 -20 5 -18
13 2 31 6 40 10 13 5 15 2 11 -14 -3 -14 0 -23 11 -27 20 -8 21 -24 1 -24 -28
0 -17 -50 19 -86 30 -30 40 -34 85 -34 95 0 126 34 119 134 -3 49 -1 55 15 50
19 -6 24 15 6 33 -8 8 -8 20 -1 40 8 25 10 22 16 -37 3 -36 7 -87 9 -115 l2
-50 17 30 c15 26 17 27 18 8 0 -12 -3 -23 -7 -25 -5 -1 -6 -23 -3 -48 l5 -45
36 60 c20 33 42 76 49 95 19 51 30 61 59 58 86 -10 42 -172 -61 -224 -34 -17
-54 -35 -63 -57 -32 -76 -102 -128 -260 -190 -137 -54 -205 -63 -323 -42 -53
10 -131 31 -172 47 -155 61 -175 86 -184 233 -4 71 -3 96 5 85 8 -12 9 -10 4
8 -9 32 13 94 33 90 18 -4 18 -23 0 -23 -7 0 -13 -6 -12 -12 1 -7 2 -22 3 -33
2 -33 52 -80 92 -86 30 -5 41 -2 60 17 16 16 21 17 16 6 -3 -9 -2 -17 4 -17
16 0 39 65 39 110 0 37 2 40 20 30 17 -9 19 -8 13 7 -3 10 -13 27 -23 38 -10
13 -17 40 -17 75 l-1 55 12 -45 c21 -75 113 -243 117 -214 1 5 1 47 0 94 l-1
85 17 -35 18 -35 3 85 3 85 38 -74 38 -74 6 39z m260 -82 c3 -3 3 -12 0 -20
-4 -11 -9 -12 -19 -3 -8 6 -11 15 -8 20 6 10 18 12 27 3z m-597 -40 c-5 -13
-10 -14 -18 -6 -6 6 -8 18 -4 28 5 13 10 14 18 6 6 -6 8 -18 4 -28z m349 -454
c-3 -5 -11 -10 -16 -10 -6 0 -7 5 -4 10 3 6 11 10 16 10 6 0 7 -4 4 -10z"/>
<path d="M1030 778 c0 -9 5 -20 10 -23 13 -8 13 5 0 25 -8 13 -10 13 -10 -2z"/>
<path d="M464 768 c-15 -44 -13 -53 8 -25 11 15 24 24 30 21 6 -4 9 -1 6 7 -8
24 -36 22 -44 -3z"/>
<path d="M1387 629 c-37 -22 -62 -109 -35 -125 6 -4 19 3 30 16 17 21 17 24 2
48 -16 24 -16 26 2 39 10 7 26 13 37 13 10 0 15 5 12 10 -8 13 -25 12 -48 -1z
m-14 -94 c-7 -21 -13 -19 -13 6 0 11 4 18 10 14 5 -3 7 -12 3 -20z"/>
<path d="M747 259 c6 -6 30 -13 54 -15 l44 -4 -50 14 c-61 18 -61 18 -48 5z"/>
<path d="M1400 185 c-7 -8 -10 -25 -6 -39 5 -19 1 -26 -13 -31 -36 -11 -33
-65 4 -65 6 0 17 -11 23 -25 15 -32 61 -35 69 -5 3 11 10 17 15 14 15 -10 66
16 71 36 3 11 -3 26 -13 35 -11 10 -15 25 -12 40 2 14 -1 32 -8 40 -11 14 -15
14 -35 1 -20 -13 -25 -13 -35 -1 -16 19 -44 19 -60 0z m55 -33 c10 -35 25 -43
25 -14 0 21 18 42 37 42 20 0 15 -38 -7 -52 -25 -16 -26 -30 -2 -27 36 3 43
-1 40 -24 -3 -19 -9 -22 -45 -21 -39 1 -43 -2 -43 -23 0 -16 -6 -23 -20 -23
-16 0 -20 7 -20 30 0 25 -4 30 -25 30 -15 0 -25 6 -25 14 0 18 35 27 49 13 8
-8 11 -6 11 6 0 9 -4 17 -10 17 -12 0 -24 45 -15 60 13 20 40 5 50 -28z"/>
</g>
</svg>
